<svg xmlns="http://www.w3.org/2000/svg" width="24" height="24" viewBox="0 0 24 24" fill="#000000" stroke="none">
  <path d="M4.5 16.5c-1.5 1.26-2 5-2 5s3.74-.5 5-2c.75-.75 1.39-1.72 1.6-2.5-.3-.3-.5-.7-.5-1.1 0-1.1.9-2 2-2 1.1 0 1.9.2 2.5.5.8-.2 1.7-.9 2.5-1.6 1.26-1.5 5-2 5-2s-.5-3.74-2-5c-.75-.75-1.72-1.39-2.5-1.6-.3.3-.7.5-1.1.5-1.1 0-2-.9-2-2 0-1.1.2-1.9.5-2.5-.2-.8-.9-1.7-1.6-2.5-1.26-1.5-5-2-5-2s-.5 3.74-2 5c-.75.75-1.39 1.72-1.6 2.5.3.3.5.7.5 1.1 0 1.1-.9 2-2 2-1.1 0-1.9-.2-2.5-.5Z"/>
  <path d="M9 11.5c-1.33 1.33-3.33 1.92-4 2.5-1 .92-2.2 1.4-3 1.5 1 .7 2 1.5 3 2.5 1.33 1.33 1.92 3.33 2.5 4 .92-1 1.4-2.2 1.5-3 .7-1 1.5-2 2.5-3 1.33-1.33 3.33-1.92 4-2.5 1-.92 2.2-1.4 3-1.5-1-.7-2-1.5-3-2.5-1.33-1.33-1.92-3.33-2.5-4-.92 1-1.4 2.2-1.5 3-.7 1-1.5 2-2.5 3Z"/>
</svg>